HIERARCHY
ROOT Hips
{
	OFFSET 0.000000 0.000000 0.000000 
	CHANNELS 6 Xposition Yposition Zposition Zrotation Yrotation Xrotation
	JOINT LeftUpLeg
	{
		OFFSET 1.363060 -1.794630 0.839290 
		CHANNELS 3 Zrotation Yrotation Xrotation
		JOINT LeftLeg
		{
			OFFSET 2.448110 -6.726130 0.000000 
			CHANNELS 3 Zrotation Yrotation Xrotation
			JOINT LeftFoot
			{
				OFFSET 2.562200 -7.039590 0.000000 
				CHANNELS 3 Zrotation Yrotation Xrotation
				JOINT LeftToeBase
				{
					OFFSET 0.157640 -0.433110 2.322550 
					CHANNELS 3 Zrotation Yrotation Xrotation
					End Site
					{
						OFFSET 0.000000 0.000000 0.000000 
					}
				}
			}
		}
	}
	JOINT RightUpLeg
	{
		OFFSET -1.305520 -1.794630 0.839290 
		CHANNELS 3 Zrotation Yrotation Xrotation
		JOINT RightLeg
		{
			OFFSET -2.542530 -6.985550 0.000000 
			CHANNELS 3 Zrotation Yrotation Xrotation
			JOINT RightFoot
			{
				OFFSET -2.568260 -7.056230 0.000000 
				CHANNELS 3 Zrotation Yrotation Xrotation
				JOINT RightToeBase
				{
					OFFSET -0.164730 -0.452590 2.363150 
					CHANNELS 3 Zrotation Yrotation Xrotation
					End Site
					{
						OFFSET 0.000000 0.000000 0.000000 
					}
				}
			}
		}
	}
	JOINT Spine
	{
		OFFSET 0.028270 2.035590 -0.193380 
		CHANNELS 3 Zrotation Yrotation Xrotation
		JOINT Spine1
		{
			OFFSET 0.056720 2.048850 -0.042750 
			CHANNELS 3 Zrotation Yrotation Xrotation
			JOINT Neck1
			{
				OFFSET -0.054170 1.746240 0.172020 
				CHANNELS 3 Zrotation Yrotation Xrotation
				JOINT Head
				{
					OFFSET 0.104070 1.761360 -0.123970 
					CHANNELS 3 Zrotation Yrotation Xrotation
					End Site
					{
						OFFSET 0.000000 0.000000 0.000000 
					}
				}
			}
			JOINT LeftArm
			{
				OFFSET 3.362410 1.200890 -0.311210 
				CHANNELS 3 Zrotation Yrotation Xrotation
				JOINT LeftForeArm
				{
					OFFSET 4.983000 -0.000000 -0.000000 
					CHANNELS 3 Zrotation Yrotation Xrotation
					JOINT LeftHand
					{
						OFFSET 3.483560 -0.000000 -0.000000 
						CHANNELS 3 Zrotation Yrotation Xrotation
						JOINT LeftHandIndex1
						{
							OFFSET 0.715260 -0.000000 -0.000000 
							CHANNELS 3 Zrotation Yrotation Xrotation
							End Site
							{
								OFFSET 0.000000 0.000000 0.000000 
							}
						}
					}
				}
			}
			JOINT RightArm
			{
				OFFSET -3.136600 1.374050 -0.404650 
				CHANNELS 3 Zrotation Yrotation Xrotation
				JOINT RightForeArm
				{
					OFFSET -5.241900 -0.000000 -0.000000 
					CHANNELS 3 Zrotation Yrotation Xrotation
					JOINT RightHand
					{
						OFFSET -3.444170 -0.000000 -0.000000 
						CHANNELS 3 Zrotation Yrotation Xrotation
						JOINT RightHandIndex1
						{
							OFFSET -0.622530 -0.000000 -0.000000 
							CHANNELS 3 Zrotation Yrotation Xrotation
							End Site
							{
								OFFSET 0.000000 0.000000 0.000000 
							}
						}
					}
				}
			}
		}
	}
}
MOTION
Frames: 18
Frame Time: 0.041667
25.599463 17.026462 -0.202540 -52.486499 77.466625 -59.868449 -0.271793 1.824179 -16.972957 -1.158393 3.425134 8.997094 -1.957214 12.707874 -4.317704 0.055600 1.522000 4.186400 34.089992 -15.429325 28.277450 -0.041969 -4.959830 7.904768 -0.782958 11.165185 -16.354057 -0.079300 -1.816200 4.997900 0.998596 5.814409 -1.710923 -6.074748 2.977127 2.801817 4.338382 -0.195420 8.607028 -0.963500 0.181200 10.890700 -90.291141 17.872168 25.184347 9.187418 -17.308044 -1.611281 0.276461 0.565411 27.172489 -7.125000 0.000000 0.000000 77.815233 19.335125 36.761981 -32.104097 45.234389 -11.563846 1.058476 -2.180014 -9.868908 7.125000 0.000000 0.000000 
25.818890 16.982863 -0.229559 -54.409619 77.303115 -61.819212 0.333589 0.697206 -16.595106 -1.262994 2.771861 7.236026 -1.945706 12.667149 -4.246998 0.006300 0.511900 1.406600 34.313247 -15.673688 29.065473 -0.006118 -4.999097 8.000873 -0.821866 11.143335 -16.730685 -0.104800 -2.087400 5.747200 1.033770 5.696487 -1.703953 -6.099103 2.927325 2.944380 4.396999 -0.244340 8.653391 -0.924000 0.165900 10.957300 -90.405354 18.219600 23.879715 9.001860 -17.029096 -1.554237 0.264173 0.600015 28.002441 -7.125000 0.000000 0.000000 77.493423 19.742959 36.587730 -32.596373 45.599508 -11.865254 1.066671 -2.163407 -10.054398 7.125000 0.000000 0.000000 
26.025830 16.937422 -0.245729 -54.600520 76.740142 -61.949870 1.327578 0.028106 -16.452277 -1.283587 2.268597 5.982316 -1.918253 12.438035 -4.470884 0.004000 -0.410500 -1.128000 35.058265 -15.293549 29.579641 0.026722 -5.146011 8.425387 -0.886135 10.743083 -17.361960 -0.060500 -1.586600 4.364400 1.084662 5.869279 -1.728567 -6.066496 3.002571 2.854111 4.335756 -0.161484 8.582608 -0.962800 0.194000 10.928000 -90.493042 18.527533 22.784952 8.858784 -16.815526 -1.511945 0.260118 0.619715 28.702239 -7.125000 0.000000 0.000000 77.211441 20.162701 36.431213 -32.808001 45.722705 -11.980129 1.047257 -2.147443 -10.082321 7.125000 0.000000 0.000000 
26.227552 16.880826 -0.255555 -52.779753 75.924898 -59.803118 2.406917 -0.089887 -16.580540 -1.253400 1.895962 5.134977 -1.874096 12.072828 -4.930886 0.013800 -0.757600 -2.082000 35.911247 -14.395176 29.672972 0.019025 -5.470783 9.379016 -0.934993 10.627887 -17.833981 -0.029500 -1.108300 3.047000 1.114544 6.309339 -1.773514 -6.013996 3.205211 2.765678 4.116788 -0.238411 8.387369 -1.138800 0.132800 10.804700 -90.547691 18.776671 21.638054 8.785274 -16.723701 -1.499046 0.296341 0.562237 29.269918 -7.125000 0.000000 0.000000 77.082031 20.507151 36.201907 -32.931647 45.777744 -12.030735 1.002914 -2.132203 -9.976920 7.125000 0.000000 0.000000 
26.440940 16.832826 -0.278070 -52.944568 75.729922 -59.917497 2.726986 -0.191455 -16.724543 -1.229778 1.768904 4.847387 -1.655543 10.920055 -4.904376 0.000700 -0.167100 -0.459200 36.236862 -14.064716 30.155729 0.019939 -5.733782 10.143883 -0.979372 10.391748 -18.252808 -0.025200 -1.025700 2.819500 1.124892 6.332768 -1.779300 -5.969764 3.213322 2.839766 4.262803 -0.477937 8.370616 -1.074400 0.039600 10.833500 -90.612293 18.923018 20.553111 8.654348 -16.525208 -1.462455 0.302186 0.560491 29.916808 -7.125000 0.000000 0.000000 76.993023 20.834830 35.932572 -33.220749 45.985680 -12.209698 0.995902 -2.124123 -10.000240 7.125000 0.000000 0.000000 
26.655966 16.788306 -0.305294 -52.805316 75.839597 -59.794857 2.587678 -0.129592 -16.942786 -1.203488 1.829907 4.999152 -1.440627 9.812112 -3.952465 0.016500 -0.828400 -2.276700 36.092547 -13.875849 30.768136 0.011960 -5.950071 10.796789 -1.018262 10.114414 -18.609428 -0.020300 -0.919800 2.528100 1.114697 6.283318 -1.766416 -5.848666 3.183626 2.936727 4.529365 -0.335117 8.295278 -0.863100 0.113100 10.806400 -90.668923 18.984053 19.543642 8.451356 -16.214170 -1.404851 0.311178 0.559343 30.745409 -7.125000 0.000000 0.000000 76.878786 21.116923 35.730951 -33.698411 46.344714 -12.522757 1.019543 -2.118700 -10.212401 7.125000 0.000000 0.000000 
26.877338 16.744605 -0.332518 -52.182205 75.957153 -59.224204 2.399106 -0.235984 -16.970184 -1.190839 2.018723 5.502397 -1.247777 8.790003 -4.432159 0.006000 0.500500 1.375400 35.958175 -13.541970 31.520448 0.003096 -6.143723 11.408876 -1.053716 9.701253 -18.932221 -0.007200 -0.547600 1.504700 1.097475 6.318432 -1.775014 -5.754299 3.193582 2.937707 4.548949 -0.334594 8.304036 -0.859200 0.116700 10.844200 -90.719108 19.068880 18.392513 8.246636 -15.901366 -1.348978 0.326535 0.552015 31.708879 -7.125000 0.000000 0.000000 76.776250 21.112156 35.527509 -34.270536 46.753904 -12.889346 1.027857 -2.111486 -10.483122 7.125000 0.000000 0.000000 
27.107204 16.701211 -0.353089 -50.969537 75.863336 -58.118564 2.347497 -0.255635 -16.926305 -1.131181 2.398986 6.530461 -1.214286 8.590412 -3.391273 0.054400 -1.505000 -4.139400 36.084502 -12.936877 32.146552 -0.031884 -6.484357 12.445328 -1.091134 9.352275 -19.260845 -0.001900 0.282600 -0.776500 1.087094 6.501123 -1.787454 -5.658377 3.274268 2.930256 4.463148 -0.519432 8.408401 -0.961200 0.039300 10.965400 -90.705383 19.086016 17.151414 8.017162 -15.550700 -1.289026 0.348933 0.526918 32.816328 -7.125000 0.000000 0.000000 76.836021 20.993812 35.218929 -34.540858 46.937436 -13.063369 1.010164 -2.109967 -10.428744 7.125000 0.000000 0.000000 
27.345769 16.660171 -0.381131 -50.477636 76.018766 -58.033347 2.001969 -0.410725 -16.856358 -1.066509 2.969953 8.073508 -1.087038 7.888830 -3.545584 0.000000 -0.002400 -0.006700 35.923522 -12.709570 33.054909 -0.060492 -6.773725 13.335207 -1.113449 8.951843 -19.450678 -0.032900 1.171700 -3.221300 1.121782 6.536677 -2.154989 -5.413201 3.179298 1.004026 4.667168 -0.167955 8.297861 -0.800500 0.221500 10.695300 -90.901000 20.610117 15.919436 7.907097 -15.352934 -1.259419 0.360821 0.549118 33.833463 -7.125000 0.000000 0.000000 77.129356 19.316079 35.389464 -35.062032 47.188340 -13.314680 1.015598 -2.102907 -10.036984 7.125000 0.000000 0.000000 
27.578398 16.620973 -0.407946 -50.370828 76.019075 -58.092260 1.787814 -0.400822 -16.974486 -0.957440 3.615402 9.788512 -1.069218 7.795750 -2.770187 0.000200 0.094600 0.260000 36.146491 -12.327419 33.676884 -0.107237 -7.151154 14.449456 -1.122487 8.532460 -19.542336 -0.053300 1.490500 -4.099500 1.095895 6.500843 -2.005593 -5.465303 3.203764 1.755717 4.604603 -0.522843 8.329822 -0.894800 0.059400 10.836100 -90.802159 19.847576 14.713557 7.642814 -14.942478 -1.191363 0.390360 0.509454 35.168702 -7.125000 0.000000 0.000000 77.272783 19.568465 34.884620 -35.394387 47.454288 -13.531788 0.998067 -2.094910 -9.792762 7.125000 0.000000 0.000000 
27.815429 16.585255 -0.435067 -49.559613 76.384151 -57.421896 1.079768 -0.284308 -17.150603 -0.879453 4.218910 11.322650 -1.158751 8.387430 -1.824396 0.025200 1.025200 2.818300 35.879313 -11.952629 34.284109 -0.185323 -7.532403 15.611739 -1.114247 8.113483 -19.461601 -0.067400 1.675400 -4.609500 1.039864 6.476074 -1.956654 -5.436099 3.206353 1.985089 4.571249 -0.575236 8.243332 -0.955900 0.037600 10.757400 -90.687966 19.554300 13.819715 7.474506 -14.690735 -1.148970 0.390259 0.511572 36.167989 -7.125000 0.000000 0.000000 77.447378 19.349569 34.581771 -35.765299 47.723759 -13.763468 0.974065 -2.089645 -9.719928 7.125000 0.000000 0.000000 
28.057883 16.551276 -0.470171 -47.323882 77.351879 -55.321617 -0.439457 -0.085508 -17.410420 -0.862336 4.739094 12.509422 -1.343164 9.785180 -0.063832 0.048100 1.415000 3.891500 34.539993 -11.762510 34.954816 -0.297965 -7.863354 16.693495 -1.085240 7.709395 -19.166156 -0.137400 2.389400 -6.583000 0.966401 6.378688 -2.112029 -5.088930 3.111046 1.271890 4.655244 -0.509943 8.260316 -0.907000 0.079500 10.690300 -90.774481 20.025210 13.118411 7.405243 -14.591623 -1.135120 0.400990 0.497166 36.770248 -7.125000 0.000000 0.000000 77.580520 18.484611 34.750672 -36.125915 47.926364 -13.964262 0.964652 -2.087740 -9.893311 7.125000 0.000000 0.000000 
28.292048 16.522722 -0.508141 -45.373855 78.098095 -53.476705 -1.596952 0.208132 -17.749857 -0.824546 5.164597 13.511435 -1.521450 11.208077 1.318849 0.073200 1.745600 4.803200 33.610352 -11.418628 35.395968 -0.429178 -8.261009 17.960996 -1.036525 7.090020 -18.727804 -0.253200 3.237300 -8.940200 0.957667 6.266481 -2.430520 -4.655723 2.986062 -0.105841 4.546062 -0.473226 8.678620 -1.012300 0.129100 10.982500 -91.118362 20.931439 11.965574 7.361087 -14.511781 -1.128845 0.427008 0.467537 37.799750 -7.125000 0.000000 0.000000 77.683161 17.078310 35.136191 -36.777946 48.270020 -14.336656 0.996745 -2.083617 -10.536365 7.125000 0.000000 0.000000 
28.525700 16.502969 -0.546418 -44.676102 78.698447 -52.627535 -2.458113 0.461965 -18.084089 -0.771530 5.607381 14.537866 -1.661644 12.296719 1.808466 0.042500 1.330000 3.657200 33.273225 -11.005891 35.584171 -0.577275 -8.757020 19.458122 -0.970138 6.278952 -18.185995 -0.304300 3.546800 -9.805000 0.748243 6.198579 -1.814670 -5.155091 3.093132 2.969241 4.783303 -0.867491 8.293621 -0.886900 -0.067000 10.939200 -90.442026 17.814292 11.038037 6.939649 -13.844193 -1.020421 0.439519 0.436012 39.485132 -7.125000 0.000000 0.000000 77.955054 19.047146 33.819355 -36.953599 48.623383 -14.612513 1.021760 -2.100008 -11.628152 7.125000 0.000000 0.000000 
28.760377 16.494884 -0.584797 -43.334276 79.542253 -51.502307 -3.547888 0.591998 -18.362508 -0.683180 6.133620 15.911377 -1.614620 12.049260 1.405518 0.001700 -0.263600 -0.724300 32.668567 -10.585030 35.806454 -0.774212 -9.293371 21.139510 -0.900845 5.567107 -17.535544 -0.171900 2.670600 -7.363100 0.773225 5.931084 -2.274616 -4.590521 2.859601 0.788260 4.948768 -0.530366 8.411942 -0.761100 0.116400 10.876800 -90.931753 19.190077 9.613085 6.867207 -13.711657 -1.005021 0.431236 0.472192 40.821968 -7.125000 0.000000 0.000000 78.250275 16.824315 34.618627 -37.494508 48.841165 -14.853236 1.010865 -2.093964 -11.359353 7.125000 0.000000 0.000000 
28.992801 16.487413 -0.622767 -40.757637 80.434925 -48.977454 -4.868480 0.702038 -18.831773 -0.513393 6.854907 17.792640 -1.378959 10.999601 2.160373 0.048700 1.424500 3.917600 31.762203 -10.175227 35.842251 -1.024874 -9.871483 22.972573 -0.800590 4.996200 -16.463169 -0.043900 1.352300 -3.718700 0.648428 5.824232 -2.259181 -4.622886 2.820679 1.004134 4.775488 -0.736679 8.616467 -0.949800 0.040700 11.106100 -90.679456 18.506955 9.185235 6.709322 -13.453395 -0.968816 0.452244 0.444496 41.675472 -7.125000 0.000000 0.000000 78.730331 16.218562 34.332204 -37.946208 49.161071 -15.153785 1.006604 -2.100795 -11.486168 7.125000 0.000000 0.000000 
29.226352 16.479021 -0.661146 -37.478571 81.339811 -45.705190 -6.323623 0.724968 -19.472161 -0.275704 7.729682 20.107452 -1.188227 10.093594 2.572106 0.154100 2.529100 6.970400 30.571572 -9.907363 35.614992 -1.332072 -10.508828 25.003027 -0.674585 4.386982 -14.990577 -0.026900 1.059100 -2.911500 0.516981 5.712877 -2.225201 -4.501892 2.769171 1.235020 5.297231 -0.965431 8.331078 -0.583600 -0.052100 10.900000 -90.517522 17.795169 8.624563 6.609766 -13.279180 -0.944593 0.454607 0.448991 42.448284 -7.125000 0.000000 0.000000 79.163934 15.379026 33.992779 -38.634019 49.641356 -15.616115 1.023910 -2.101904 -11.793907 7.125000 0.000000 0.000000 
29.454580 16.479328 -0.698195 -34.481878 82.113996 -42.793086 -7.605121 0.996020 -19.678610 -0.119684 8.275577 21.566390 -1.104353 9.675004 2.523525 0.071100 1.719700 4.731700 29.472916 -9.724976 35.062416 -1.723856 -11.284982 27.466111 -0.539768 3.600051 -13.251353 -0.028500 1.089100 -2.993900 0.413222 5.643184 -2.288364 -4.460060 2.733600 0.959138 5.407731 -1.071704 8.369654 -0.507500 -0.090200 10.905000 -90.421486 17.291452 7.469901 6.458841 -13.005193 -0.908915 0.464663 0.450625 44.031564 -7.125000 0.000000 0.000000 79.588627 14.080886 33.744227 -39.350013 50.086988 -16.073313 1.040700 -2.100258 -12.045123 7.125000 0.000000 0.000000 
